<svg width="9" height="16" viewBox="0 0 9 16" fill="none" xmlns="http://www.w3.org/2000/svg">
<path d="M8.75429 8.0909C8.75512 8.23485 8.72753 8.37754 8.6731 8.51079C8.61867 8.64405 8.53847 8.76525 8.43711 8.86745L1.87475 15.4298C1.66879 15.6358 1.38946 15.7515 1.0982 15.7515C0.806941 15.7515 0.527609 15.6358 0.321656 15.4298C0.115703 15.2239 -3.52725e-08 14.9445 -4.80039e-08 14.6533C-6.07354e-08 14.362 0.115703 14.0827 0.321656 13.8767L6.11841 8.0909L0.332593 2.30509C0.153412 2.09586 0.0597814 1.82672 0.0704137 1.55146C0.0810459 1.27619 0.195158 1.01507 0.389944 0.820288C0.584731 0.625501 0.845846 0.511392 1.12111 0.500759C1.39638 0.490127 1.66552 0.583754 1.87475 0.762936L8.43711 7.3253C8.63917 7.52901 8.75308 7.80398 8.75429 8.0909Z" fill="white"/>
</svg>
