<?xml version="1.0" encoding="UTF-8"?>
<svg id="Layer_2" data-name="Layer 2" xmlns="http://www.w3.org/2000/svg" viewBox="0 0 541.39 183.58">
  <defs>
    <style>
      .cls-1, .cls-2 {
        fill: #4f4f4f;
      }

      .cls-2 {
        fill-rule: evenodd;
      }
    </style>
  </defs>
  <g id="Layer_1-2" data-name="Layer 1">
    <g>
      <path class="cls-1" d="M541.39,95.73c0,23.38-14.96,39.16-36.05,39.16s-36.05-15.78-36.05-39.16,14.96-39.16,36.05-39.16,36.05,15.78,36.05,39.16ZM486.54,95.73c0,15.35,7.27,24.67,18.81,24.67s18.81-9.32,18.81-24.67-7.27-24.67-18.81-24.67-18.81,9.32-18.81,24.67Z"/>
      <path class="cls-1" d="M445.06,133.31v-10.62c-4.13,6.89-14.1,12.19-27.5,12.19-26.5,0-46.16-21.52-46.16-52.65s19.8-53.51,47.3-53.51c20.94,0,35.05,11.33,41.32,29.55l-17.38,5.88c-2.99-12.19-11.54-19.22-23.79-19.22-17.24,0-29.21,14.78-29.21,37.01s11.97,37.15,29.49,37.15c14.82,0,24.51-10.62,25.08-25.25h-26.93v-16.07h44.45v55.51h-16.67Z"/>
      <path class="cls-1" d="M333.66,114.38v-41.74h-10.4v-14.63h10.4v-22.09h16.81v22.09h15.67v14.63h-15.67v39.02c0,6.74,3.85,7.46,9.97,7.46,2.85,0,4.42-.14,6.98-.43v14.49c-3.14.57-7.41,1-11.83,1-14.25,0-21.94-4.45-21.94-19.8Z"/>
      <path class="cls-1" d="M300.02,47.96v-17.64h17.67v17.64h-17.67ZM317.4,58v75.31h-17.1V58h17.1Z"/>
      <path class="cls-1" d="M215.5,133.32V30.32h40.61c21.94,0,33.62,9.61,33.62,27.11,0,12.77-7.41,19.37-14.53,22.23,10.69,3.44,17.81,12.34,17.81,24.96,0,18.07-13.25,28.69-34.34,28.69h-43.17ZM233.02,72.92h21.37c11.68,0,18.1-4.59,18.1-13.63s-6.41-13.48-18.1-13.48h-21.37v27.11ZM233.02,88.42v29.41h24.65c11.54,0,17.81-6.03,17.81-14.78s-6.27-14.63-17.81-14.63h-24.65Z"/>
      <path class="cls-2" d="M155.78,104.21c0,42.43-77.89,79.38-77.89,79.38C77.89,183.58,0,146.64,0,104.21c0-11.02,0-20.75,0-30.05,0-18.49.02-35.29-.01-57.2,49.46-22.63,106.34-22.61,155.78.05v87.2ZM71.81,30.31h-10.05v9.97h-10.05v83.08h10.05v9.97h10.05v-9.97h10.05v9.97h10.05v-10.93c12.77-2.69,20.1-10.94,20.1-23.18,0-8.55-5.53-16.29-14.98-18.75,8.35-2.46,13.14-9.61,13.14-17.58,0-11.34-6.85-19.29-18.26-21.78v-10.8h-10.05v9.97h-10.05v-9.97ZM80.7,53.29c8.47,0,13.39,3.87,13.39,10.43s-4.67,10.43-12.53,10.43h-14.12v-20.86h13.26ZM81.68,86.8c9.46,0,14.25,3.87,14.25,11.6,0,7.03-5.77,11.37-15.11,11.37h-13.39v-22.97h14.25Z"/>
    </g>
  </g>
</svg>