<svg width="86" height="86" viewBox="0 0 86 86" fill="none" xmlns="http://www.w3.org/2000/svg">
<circle cx="43" cy="43" r="43" fill="#1DC678"/>
<path d="M38.0094 56C37.229 56 36.4486 55.6995 35.8545 55.098L26.8927 45.8955C26.2562 45.2511 25.9361 44.3727 26.0106 43.4515C26.0624 42.8154 26.3118 42.2075 26.7197 41.7216C27.31 41.0197 28.1485 40.6291 29.0469 40.6291C29.8608 40.6291 30.626 40.95 31.2012 41.533L37.7745 48.3172C37.8503 48.3939 37.9722 48.3939 38.0479 48.3172L53.6819 30.9238C54.2703 30.3279 55.0526 30 55.8848 30C56.7169 30 57.4992 30.3279 58.0877 30.9238C58.6761 31.5196 59 32.3116 59 33.1542C59 33.9967 58.6761 34.7888 58.0877 35.3846L40.2129 55.0488L40.1643 55.098C39.5702 55.6989 38.7898 56 38.0094 56Z" fill="white"/>
</svg>
