<svg width="46" height="34" viewBox="0 0 46 34" fill="none" xmlns="http://www.w3.org/2000/svg">
<g filter="url(#filter0_d_6821_673)">
<path fill-rule="evenodd" clip-rule="evenodd" d="M18.2028 6.19024C18.2028 5.50644 17.6485 4.95215 16.9647 4.95215C16.2809 4.95215 15.7266 5.50644 15.7266 6.19024V6.89775H13.7147C13.0309 6.89775 12.4766 7.45205 12.4766 8.13585V17.8637C12.4766 18.5475 13.0309 19.1018 13.7147 19.1018H15.7266V19.8093C15.7266 20.4931 16.2809 21.0474 16.9647 21.0474C17.6485 21.0474 18.2028 20.4931 18.2028 19.8093V19.1018H18.8218C20.8413 19.1018 22.3813 17.4037 22.3813 15.4318C22.3813 14.5138 22.0477 13.6553 21.4874 12.9998C22.0477 12.3442 22.3813 11.4857 22.3813 10.5678C22.3813 8.5958 20.8413 6.89775 18.8218 6.89775H18.2028V6.19024ZM14.9528 9.37394H18.8218C19.3664 9.37394 19.9051 9.85352 19.9051 10.5678C19.9051 11.282 19.3664 11.7617 18.8218 11.7617H14.9528V9.37394ZM14.9528 14.2379H18.8218C19.3664 14.2379 19.9051 14.7175 19.9051 15.4318C19.9051 16.146 19.3664 16.6256 18.8218 16.6256H14.9528V14.2379Z" fill="white"/>
<path fill-rule="evenodd" clip-rule="evenodd" d="M17.4297 26C19.4236 26 21.3127 25.5511 23.0015 24.7488C24.6912 25.5513 26.5809 26 28.5725 26C35.7523 26 41.5725 20.1797 41.5725 13C41.5725 5.82029 35.7523 0 28.5725 0C26.5809 0 24.6912 0.448686 23.0014 1.25122C21.3127 0.448933 19.4236 0 17.4297 0C10.25 0 4.42969 5.82029 4.42969 13C4.42969 20.1797 10.25 26 17.4297 26ZM17.4297 2.47619C11.6176 2.47619 6.90588 7.18789 6.90588 13C6.90588 18.8121 11.6176 23.5238 17.4297 23.5238C22.7765 23.5238 27.192 19.5364 27.8647 14.373C27.9233 13.9236 27.9535 13.4653 27.9535 13C27.9535 12.6367 27.9351 12.2778 27.8991 11.924C27.3603 6.61731 22.8785 2.47619 17.4297 2.47619ZM28.5725 23.5238C27.5439 23.5238 26.5507 23.3765 25.6124 23.1021C28.228 20.9809 30.0035 17.8644 30.3626 14.3292C30.407 13.8922 30.4297 13.4487 30.4297 13C30.4297 12.4147 30.391 11.8384 30.316 11.2736C29.8688 7.90245 28.1296 4.93926 25.6124 2.89789C26.5507 2.62346 27.5439 2.47619 28.5725 2.47619C34.3847 2.47619 39.0964 7.18789 39.0964 13C39.0964 18.8121 34.3847 23.5238 28.5725 23.5238Z" fill="white"/>
</g>
<defs>
<filter id="filter0_d_6821_673" x="0.429688" y="0" width="45.1426" height="34" filterUnits="userSpaceOnUse" color-interpolation-filters="sRGB">
<feFlood flood-opacity="0" result="BackgroundImageFix"/>
<feColorMatrix in="SourceAlpha" type="matrix" values="0 0 0 0 0 0 0 0 0 0 0 0 0 0 0 0 0 0 127 0" result="hardAlpha"/>
<feOffset dy="4"/>
<feGaussianBlur stdDeviation="2"/>
<feComposite in2="hardAlpha" operator="out"/>
<feColorMatrix type="matrix" values="0 0 0 0 0 0 0 0 0 0 0 0 0 0 0 0 0 0 0.25 0"/>
<feBlend mode="normal" in2="BackgroundImageFix" result="effect1_dropShadow_6821_673"/>
<feBlend mode="normal" in="SourceGraphic" in2="effect1_dropShadow_6821_673" result="shape"/>
</filter>
</defs>
</svg>
