<svg width="1920" height="68" viewBox="0 0 1920 68" fill="none" xmlns="http://www.w3.org/2000/svg">
<path opacity="0.37" d="M677.355 33.7279C677.355 24.7831 673.802 16.2047 667.477 9.87984C661.152 3.55494 652.574 0.00164795 643.629 0.00164795V33.7279" fill="#1B81DB"/>
<path d="M711.082 0.000995636C702.137 0.000995636 693.559 3.55428 687.234 9.87918C680.909 16.2041 677.356 24.7825 677.356 33.7272H711.082" fill="#D7FF1D"/>
<path opacity="0.196" d="M114.184 33.7279C114.184 24.7831 110.63 16.2047 104.305 9.87984C97.9805 3.55494 89.4021 0.00164795 80.4574 0.00164795V33.7279" fill="#4893FF"/>
<path d="M147.91 0.000995636C138.965 0.000995636 130.387 3.55428 124.062 9.87918C117.737 16.2041 114.184 24.7825 114.184 33.7272H147.91" fill="#D7FF1D"/>
<path opacity="0.196" d="M563.176 0.00213623V33.7284H596.902L563.176 0.00213623Z" fill="#4893FF"/>
<path opacity="0.93" d="M630.629 33.7282H596.903V0.00195312L630.629 33.7282Z" fill="#291BDB"/>
<path d="M596.902 33.7303L563.176 67.4566H596.902V33.7303Z" fill="#D7FF1D"/>
<path opacity="0.196" d="M0.000305176 0.00146484V33.7277H33.7266L0.000305176 0.00146484Z" fill="#4893FF"/>
<path d="M67.457 33.7272H33.7308V0.000976562L67.457 33.7272Z" fill="#291BDB"/>
<path d="M33.7266 33.7295L0.000305176 67.4557H33.7266V33.7295Z" fill="#D7FF1D"/>
<path opacity="0.5" d="M550.176 0.00265884C550.176 4.42373 549.305 8.80151 547.613 12.8861C545.921 16.9706 543.442 20.6819 540.315 23.8081C537.189 26.9342 533.478 29.414 529.393 31.1059C525.309 32.7977 520.931 33.6685 516.51 33.6685V0.00265884" fill="#4893FF"/>
<path d="M516.383 33.667C507.454 33.667 498.891 30.1201 492.578 23.8065C486.264 17.4929 482.717 8.92992 482.717 0.001194H516.383" fill="#FFE22E"/>
<path opacity="0.5" d="M550.176 0.00265884C550.176 4.42373 549.305 8.80151 547.613 12.8861C545.921 16.9706 543.442 20.6819 540.315 23.8081C537.189 26.9342 533.478 29.414 529.393 31.1059C525.309 32.7977 520.931 33.6685 516.51 33.6685V0.00265884" fill="#4893FF"/>
<path d="M516.387 33.6675C507.458 33.6675 498.895 30.1206 492.581 23.807C486.268 17.4934 482.721 8.93041 482.721 0.00168228H516.387" fill="#D7FF1D"/>
<path d="M469.719 33.7297C469.719 24.7849 466.165 16.2065 459.841 9.8816C453.516 3.55671 444.937 0.00341797 435.992 0.00341797V33.7297" fill="#291BDB"/>
<path d="M435.992 0.00195312C427.047 0.00195312 418.469 3.55524 412.144 9.88014C405.819 16.205 402.266 24.7834 402.266 33.7282H435.992" fill="#D7FF1D"/>
<path opacity="0.5" d="M469.719 33.7292C469.719 42.6739 466.165 51.2523 459.841 57.5772C453.516 63.9021 444.937 67.4554 435.992 67.4554V33.7292" fill="#4893FF"/>
<path opacity="0.5" d="M389.27 0.00195312H355.543L389.27 33.7282V0.00195312Z" fill="#4893FF"/>
<path d="M321.817 0.00177002V33.728H355.543L321.817 0.00177002Z" fill="#D7FF1D"/>
<path d="M389.27 33.7285H355.543V67.4548L389.27 33.7285Z" fill="#4893FF"/>
<path opacity="0.5" d="M355.543 33.7285L321.817 67.4548H355.543V33.7285Z" fill="#4893FF"/>
<path d="M308.812 0.0136719L275.086 33.7399H308.812V0.0136719Z" fill="#4893FF"/>
<path opacity="0.5" d="M241.36 0.0136719V33.7399H275.086L241.36 0.0136719Z" fill="#4893FF"/>
<path d="M228.363 0.00195312C219.419 0.00195313 210.84 3.55525 204.515 9.88015C198.19 16.205 194.637 24.7835 194.637 33.7282H228.363" fill="#D7FF1D"/>
<path d="M194.641 33.7297C194.641 24.7849 191.087 16.2065 184.762 9.8816C178.438 3.55671 169.859 0.00341797 160.914 0.00341797V33.7297" fill="#291BDB"/>
<path opacity="0.33" d="M194.641 33.7266C194.641 42.6713 191.087 51.2497 184.762 57.5746C178.438 63.8995 169.859 67.4528 160.914 67.4528V33.7266" fill="#291BDB"/>
<path opacity="0.37" d="M757.809 33.7277C757.809 24.783 761.362 16.2046 767.687 9.87965C774.012 3.55475 782.59 0.00146484 791.535 0.00146484V33.7277" fill="#1B81DB"/>
<path d="M724.082 0.000995636C733.027 0.000995636 741.605 3.55428 747.93 9.87918C754.255 16.2041 757.808 24.7825 757.808 33.7272H724.082" fill="#D7FF1D"/>
<path opacity="0.196" d="M1320.98 33.7272C1320.98 24.7825 1324.54 16.2041 1330.86 9.87916C1337.19 3.55427 1345.77 0.000976562 1354.71 0.000976562V33.7272" fill="#4893FF"/>
<path d="M1287.26 1.90735e-05C1296.2 1.90735e-05 1304.78 3.55331 1311.11 9.8782C1317.43 16.2031 1320.98 24.7815 1320.98 33.7263H1287.26" fill="#D7FF1D"/>
<path opacity="0.196" d="M871.988 0.00146484V33.7277H838.262L871.988 0.00146484Z" fill="#4893FF"/>
<path opacity="0.93" d="M804.535 33.7272H838.261V0.000976562L804.535 33.7272Z" fill="#291BDB"/>
<path d="M838.262 33.7295L871.988 67.4557H838.262V33.7295Z" fill="#D7FF1D"/>
<path opacity="0.196" d="M1437.06 0.00134277V33.7276H1403.33L1437.06 0.00134277Z" fill="#4893FF"/>
<path d="M1367.71 33.7263H1401.44V0L1367.71 33.7263Z" fill="#291BDB"/>
<path d="M1403.33 33.7295L1437.06 67.4557H1403.33V33.7295Z" fill="#D7FF1D"/>
<path opacity="0.5" d="M884.988 0.00265884C884.988 4.42373 885.859 8.80151 887.551 12.8861C889.243 16.9706 891.722 20.6819 894.849 23.8081C897.975 26.9342 901.686 29.414 905.771 31.1059C909.855 32.7977 914.233 33.6685 918.654 33.6685V0.00265884" fill="#4893FF"/>
<path d="M918.781 33.667C927.71 33.667 936.273 30.1201 942.587 23.8065C948.9 17.4929 952.447 8.92992 952.447 0.001194H918.781" fill="#FFE22E"/>
<path opacity="0.5" d="M884.988 0.00265884C884.988 4.42373 885.859 8.80151 887.551 12.8861C889.243 16.9706 891.722 20.6819 894.849 23.8081C897.975 26.9342 901.686 29.414 905.771 31.1059C909.855 32.7977 914.233 33.6685 918.654 33.6685V0.00265884" fill="#4893FF"/>
<path d="M918.777 33.6677C927.706 33.6677 936.269 30.1207 942.583 23.8072C948.896 17.4936 952.443 8.93059 952.443 0.00186539H918.777" fill="#D7FF1D"/>
<path d="M965.445 33.7287C965.445 24.7839 968.999 16.2055 975.324 9.88063C981.648 3.55573 990.227 0.00244141 999.172 0.00244141V33.7287" fill="#291BDB"/>
<path d="M999.172 0.000976562C1008.12 0.000976562 1016.7 3.55426 1023.02 9.87916C1029.34 16.2041 1032.9 24.7825 1032.9 33.7272H999.172" fill="#D7FF1D"/>
<path opacity="0.5" d="M965.445 33.7282C965.445 42.673 968.999 51.2514 975.324 57.5763C981.648 63.9012 990.227 67.4544 999.172 67.4544V33.7282" fill="#4893FF"/>
<path opacity="0.5" d="M1045.9 0.000976562H1079.62L1045.9 33.7272V0.000976562Z" fill="#4893FF"/>
<path d="M1113.35 0.000976562V33.7272H1079.62L1113.35 0.000976562Z" fill="#D7FF1D"/>
<path d="M1045.9 33.7275H1079.62V67.4538L1045.9 33.7275Z" fill="#4893FF"/>
<path opacity="0.5" d="M1079.62 33.7275L1113.35 67.4538H1079.62V33.7275Z" fill="#4893FF"/>
<path d="M1126.35 0.00195312H1160.08L1126.35 33.7282V0.00195312Z" fill="#D7FF1D"/>
<path d="M1126.35 33.73L1160.08 67.4562H1126.35V33.73Z" fill="#4893FF"/>
<path opacity="0.5" d="M1193.8 33.7271V0.000804901H1160.08L1193.8 33.7271Z" fill="#4893FF"/>
<path d="M1206.8 0.000976562C1215.75 0.000976563 1224.33 3.55428 1230.65 9.87918C1236.98 16.2041 1240.53 24.7825 1240.53 33.7272H1206.8" fill="#D7FF1D"/>
<path d="M1240.53 33.729C1240.53 24.7842 1244.08 16.2058 1250.41 9.88093C1256.73 3.55603 1265.31 0.00274658 1274.26 0.00274658V33.729" fill="#291BDB"/>
<path opacity="0.33" d="M1240.53 33.7261C1240.53 42.6708 1244.08 51.2492 1250.41 57.5741C1256.73 63.899 1265.31 67.4523 1274.26 67.4523V33.7261" fill="#291BDB"/>
<path opacity="0.196" d="M1564.23 33.7272C1564.23 24.7825 1560.68 16.2041 1554.36 9.87916C1548.03 3.55427 1539.45 0.000976562 1530.51 0.000976562V33.7272" fill="#4893FF"/>
<path d="M1597.96 1.90735e-05C1589.02 1.90735e-05 1580.44 3.55331 1574.12 9.8782C1567.79 16.2031 1564.24 24.7815 1564.24 33.7263H1597.96" fill="#D7FF1D"/>
<path opacity="0.196" d="M1450.05 0.00146484V33.7277H1483.78L1450.05 0.00146484Z" fill="#4893FF"/>
<path d="M1517.51 33.7263H1483.79V0L1517.51 33.7263Z" fill="#291BDB"/>
<path d="M1483.78 33.7295L1450.05 67.4557H1483.78V33.7295Z" fill="#D7FF1D"/>
<path d="M1919.77 33.7287C1919.77 24.7839 1916.22 16.2055 1909.9 9.88063C1903.57 3.55573 1894.99 0.00244141 1886.05 0.00244141V33.7287" fill="#291BDB"/>
<path d="M1886.05 0.000976562C1877.1 0.000976562 1868.52 3.55426 1862.2 9.87916C1855.87 16.2041 1852.32 24.7825 1852.32 33.7272H1886.05" fill="#D7FF1D"/>
<path opacity="0.5" d="M1919.77 33.728C1919.77 42.6728 1916.22 51.2512 1909.9 57.5761C1903.57 63.901 1894.99 67.4543 1886.05 67.4543V33.728" fill="#4893FF"/>
<path opacity="0.5" d="M1839.32 0.00195312H1805.59L1839.32 33.7282V0.00195312Z" fill="#4893FF"/>
<path d="M1771.87 0.00195312V33.7282H1805.59L1771.87 0.00195312Z" fill="#D7FF1D"/>
<path d="M1839.32 33.7285H1805.59V67.4548L1839.32 33.7285Z" fill="#4893FF"/>
<path opacity="0.5" d="M1805.59 33.7285L1771.87 67.4548H1805.59V33.7285Z" fill="#4893FF"/>
<path d="M1758.87 0L1725.14 33.7262H1758.87V0Z" fill="#4893FF"/>
<path opacity="0.5" d="M1691.41 0V33.7262H1725.14L1691.41 0Z" fill="#4893FF"/>
<path d="M1678.41 0.00195312C1669.47 0.00195313 1660.89 3.55525 1654.57 9.88015C1648.24 16.205 1644.69 24.7835 1644.69 33.7282H1678.41" fill="#D7FF1D"/>
<path d="M1644.69 33.7301C1644.69 24.7854 1641.13 16.207 1634.81 9.88209C1628.48 3.55719 1619.91 0.00390625 1610.96 0.00390625V33.7301" fill="#291BDB"/>
<path opacity="0.33" d="M1644.69 33.7271C1644.69 42.6718 1641.13 51.2502 1634.81 57.5751C1628.48 63.9 1619.91 67.4533 1610.96 67.4533V33.7271" fill="#291BDB"/>
</svg>
