<svg width="38" height="38" viewBox="0 0 38 38" fill="none" xmlns="http://www.w3.org/2000/svg">
<path d="M32.4351 5.56492C28.8464 1.97637 24.0751 0 19 0C13.9249 0 9.15362 1.97637 5.56492 5.56492C1.97637 9.15362 0 13.9249 0 19C0 24.0751 1.97637 28.8464 5.56492 32.4351C9.15362 36.0236 13.9249 38 19 38C24.0751 38 28.8464 36.0236 32.4351 32.4351C36.0236 28.8464 38 24.0751 38 19C38 13.9249 36.0236 9.15362 32.4351 5.56492ZM35.5932 16.5448C34.8371 17.3096 34.1662 17.734 33.5515 17.8374C32.9585 17.9373 32.3696 17.7435 31.6878 17.5191C30.3838 17.09 28.5979 16.5022 26.2746 18.0788C23.6349 19.87 23.5538 23.8843 23.4887 27.1098C23.4614 28.4601 23.4357 29.7355 23.2349 30.5852C23.1295 31.0314 23.0104 31.2019 22.9642 31.2546C22.9356 31.287 22.9225 31.3018 22.8269 31.3018C20.2818 31.3018 18.7056 27.7898 17.8315 24.8436C17.4537 23.5702 16.4963 22.6604 15.5704 21.7805C14.0443 20.3304 12.839 19.185 13.6764 16.5966C14.2294 14.8873 15.4831 14.9376 18.2115 15.4596C19.1942 15.6477 20.1223 15.8254 20.9646 15.7652C22.5073 15.6553 23.1461 14.7643 23.4104 14.0361C24.002 12.4061 23.1761 11.2139 22.5125 10.2559C21.9594 9.45762 21.437 8.70356 21.3645 7.55859C21.2833 6.27772 21.8041 4.64164 22.913 2.68857C29.503 4.26936 34.5923 9.75041 35.5932 16.5448ZM8.47296 5.95175C10.4926 8.97683 8.79693 11.0552 6.85804 13.4303C5.38724 15.2321 3.86628 17.0953 4.51666 19.3132C5.72368 23.4296 6.21181 26.4951 4.75482 27.8454C3.15341 25.2759 2.22656 22.2443 2.22656 19C2.22656 13.7348 4.66591 9.02923 8.47296 5.95175ZM19 35.7734C13.8002 35.7734 9.14546 33.395 6.06642 29.669C7.24909 28.7196 7.85635 27.2391 7.87379 25.2478C7.89183 23.2012 7.29786 20.885 6.65327 18.6868C6.33301 17.5947 7.37564 16.3174 8.58295 14.8384C9.68406 13.4896 10.9321 11.9606 11.4131 10.143C11.9019 8.29595 11.536 6.49525 10.2944 4.66747C12.8338 3.11927 15.8145 2.22656 19 2.22656C19.5356 2.22656 20.065 2.25291 20.5879 2.30219C19.5175 4.3602 19.0432 6.13626 19.1423 7.69938C19.254 9.46237 20.0458 10.6053 20.6821 11.5237C21.3126 12.4338 21.5009 12.7705 21.3173 13.2764C21.2692 13.4091 21.2311 13.5139 20.8064 13.5441C20.2548 13.5837 19.4654 13.4324 18.6299 13.2725C17.426 13.0422 16.0615 12.7811 14.8164 12.9878C13.1948 13.2568 12.0985 14.2404 11.5581 15.9112C10.2891 19.8333 12.4551 21.8916 14.0367 23.3945C14.7833 24.104 15.4886 24.7741 15.697 25.4768C16.3108 27.5461 17.0231 29.1725 17.8744 30.449C19.2371 32.4923 20.9034 33.5283 22.8269 33.5283C23.574 33.5283 24.902 33.2125 25.4018 31.0973C25.6571 30.0173 25.6851 28.6268 25.7149 27.1548C25.7725 24.3008 25.8378 21.066 27.5248 19.9212C28.9421 18.9595 29.8019 19.2425 30.9917 19.6341C32.2775 20.0572 33.8071 20.5602 35.7699 19.2797C35.6199 28.4 28.1554 35.7734 19 35.7734Z" fill="white"/>
</svg>
