<svg width="1920" height="73" viewBox="0 0 1920 73" fill="none" xmlns="http://www.w3.org/2000/svg">
<g clip-path="url(#clip0_6896_5309)">
<path opacity="0.37" d="M16.6797 36.677C16.6797 26.9497 20.5439 17.6207 27.4221 10.7424C34.3004 3.86417 43.6293 0 53.3567 0V36.677" fill="#1B81DB"/>
<path d="M-20 73.3562C-10.2727 73.3562 -0.943713 69.492 5.93456 62.6138C12.8128 55.7355 16.677 46.4065 16.677 36.6792H-20" fill="#D7FF1D"/>
<path opacity="0.196" d="M408.109 36.677C408.109 26.9497 411.974 17.6207 418.852 10.7424C425.73 3.86417 435.059 0 444.786 0V36.677" fill="#4893FF"/>
<path d="M371.43 73.3562C381.157 73.3562 390.486 69.492 397.364 62.6138C404.243 55.7355 408.107 46.4065 408.107 36.6792H371.43" fill="#D7FF1D"/>
<path opacity="0.196" d="M132.919 0V36.677H96.2422L132.919 0Z" fill="#4893FF"/>
<path opacity="0.93" d="M59.5625 36.6792H96.2395V73.3562L59.5625 36.6792Z" fill="#291BDB"/>
<path d="M96.2422 36.6792L132.919 73.3562H96.2422V36.6792Z" fill="#D7FF1D"/>
<path opacity="0.196" d="M524.349 0V36.677H487.672L524.349 0Z" fill="#4893FF"/>
<path d="M450.992 36.6792H487.669V73.3562L450.992 36.6792Z" fill="#291BDB"/>
<path d="M487.672 36.6792L524.349 73.3562H487.672V36.6792Z" fill="#D7FF1D"/>
<path opacity="0.5" d="M139.125 73.3564C139.125 68.5485 140.072 63.7877 141.912 59.3458C143.752 54.9039 146.448 50.8679 149.848 47.4682C153.248 44.0685 157.284 41.3718 161.726 39.5319C166.168 37.692 170.928 36.7451 175.736 36.7451V73.3564" fill="#4893FF"/>
<path d="M175.867 36.7458C185.577 36.7458 194.889 40.6031 201.755 47.469C208.621 54.335 212.478 63.6472 212.478 73.3571H175.867" fill="#FFE22E"/>
<path opacity="0.5" d="M139.125 73.3564C139.125 68.5485 140.072 63.7877 141.912 59.3458C143.752 54.9039 146.448 50.8679 149.848 47.4682C153.248 44.0685 157.284 41.3718 161.726 39.5319C166.168 37.692 170.928 36.7451 175.736 36.7451V73.3564" fill="#4893FF"/>
<path d="M175.867 36.7456C185.577 36.7456 194.889 40.6029 201.755 47.4688C208.621 54.3347 212.478 63.647 212.478 73.3569H175.867" fill="#D7FF1D"/>
<path opacity="0.5" d="M530.555 73.3564C530.555 68.5485 531.502 63.7877 533.341 59.3458C535.181 54.9039 537.878 50.8679 541.278 47.4682C544.677 44.0685 548.713 41.3718 553.155 39.5319C557.597 37.692 562.358 36.7451 567.166 36.7451V73.3564" fill="#4893FF"/>
<path d="M567.297 36.7458C577.007 36.7458 586.319 40.6031 593.185 47.469C600.051 54.335 603.908 63.6472 603.908 73.3571H567.297" fill="#FFE22E"/>
<path opacity="0.5" d="M530.555 73.3564C530.555 68.5485 531.502 63.7877 533.341 59.3458C535.181 54.9039 537.878 50.8679 541.278 47.4682C544.677 44.0685 548.713 41.3718 553.155 39.5319C557.597 37.692 562.358 36.7451 567.166 36.7451V73.3564" fill="#4893FF"/>
<path d="M567.297 36.7456C577.007 36.7456 586.319 40.6029 593.185 47.4688C600.051 54.3347 603.908 63.647 603.908 73.3569H567.297" fill="#D7FF1D"/>
<path d="M218.688 36.6782C218.688 26.9509 222.552 17.6219 229.43 10.7437C236.308 3.86539 245.637 0.0012207 255.365 0.0012207V36.6782" fill="#291BDB"/>
<path d="M255.367 0C265.095 0 274.423 3.86417 281.302 10.7424C288.18 17.6207 292.044 26.9497 292.044 36.677H255.367" fill="#D7FF1D"/>
<path opacity="0.5" d="M218.688 36.6775C218.688 46.4048 222.552 55.7338 229.43 62.6121C236.308 69.4903 245.637 73.3545 255.365 73.3545V36.6775" fill="#4893FF"/>
<path d="M298.258 36.6775H334.935V73.3545L298.258 36.6775Z" fill="#4893FF"/>
<path d="M334.75 36.6785C334.75 26.9511 338.614 17.6222 345.492 10.7439C352.371 3.86564 361.7 0.00146484 371.427 0.00146484V36.6785" fill="#291BDB"/>
<path opacity="0.33" d="M334.75 36.675C334.75 46.4024 338.614 55.7313 345.492 62.6096C352.371 69.4879 361.7 73.3521 371.427 73.3521V36.675" fill="#291BDB"/>
<path opacity="0.37" d="M1160.17 36.677C1160.17 26.9497 1156.31 17.6207 1149.43 10.7424C1142.55 3.86417 1133.22 0 1123.49 0V36.677" fill="#1B81DB"/>
<path d="M1196.85 73.3562C1187.12 73.3562 1177.8 69.492 1170.92 62.6138C1164.04 55.7355 1160.17 46.4065 1160.17 36.6792H1196.85" fill="#D7FF1D"/>
<path opacity="0.196" d="M727.562 36.677C727.562 26.9497 723.698 17.6207 716.82 10.7424C709.942 3.86417 700.613 0 690.885 0V36.677" fill="#4893FF"/>
<path d="M764.242 73.3562C754.515 73.3562 745.186 69.492 738.308 62.6138C731.429 55.7355 727.565 46.4065 727.565 36.6792H764.242" fill="#D7FF1D"/>
<path opacity="0.196" d="M1043.92 0V36.677H1080.6L1043.92 0Z" fill="#4893FF"/>
<path opacity="0.93" d="M1117.28 36.6792H1080.6V73.3562L1117.28 36.6792Z" fill="#291BDB"/>
<path d="M1080.6 36.6792L1043.92 73.3562H1080.6V36.6792Z" fill="#D7FF1D"/>
<path opacity="0.196" d="M611.323 0V36.677H648L611.323 0Z" fill="#4893FF"/>
<path d="M684.68 36.6792H648.003V73.3562L684.68 36.6792Z" fill="#291BDB"/>
<path d="M648 36.6792L611.323 73.3562H648V36.6792Z" fill="#D7FF1D"/>
<path opacity="0.5" d="M1037.73 73.3564C1037.73 68.5485 1036.78 63.7877 1034.94 59.3458C1033.1 54.9039 1030.4 50.8679 1027 47.4682C1023.6 44.0685 1019.57 41.3718 1015.13 39.5319C1010.68 37.692 1005.92 36.7451 1001.12 36.7451V73.3564" fill="#4893FF"/>
<path d="M1000.98 36.7458C991.274 36.7458 981.962 40.6031 975.096 47.469C968.23 54.335 964.373 63.6472 964.373 73.3571H1000.98" fill="#FFE22E"/>
<path opacity="0.5" d="M1037.73 73.3564C1037.73 68.5485 1036.78 63.7877 1034.94 59.3458C1033.1 54.9039 1030.4 50.8679 1027 47.4682C1023.6 44.0685 1019.57 41.3718 1015.13 39.5319C1010.68 37.692 1005.92 36.7451 1001.12 36.7451V73.3564" fill="#4893FF"/>
<path d="M1000.98 36.7456C991.274 36.7456 981.962 40.6029 975.096 47.4688C968.23 54.3347 964.373 63.647 964.373 73.3569H1000.98" fill="#D7FF1D"/>
<path d="M958.164 36.6785C958.164 26.9511 954.3 17.6222 947.422 10.7439C940.543 3.86564 931.214 0.00146484 921.487 0.00146484V36.6785" fill="#291BDB"/>
<path d="M921.484 0C911.757 0 902.428 3.86417 895.55 10.7424C888.672 17.6207 884.807 26.9497 884.807 36.677H921.484" fill="#D7FF1D"/>
<path opacity="0.5" d="M958.164 36.6775C958.164 46.4048 954.3 55.7338 947.422 62.6121C940.543 69.4903 931.214 73.3545 921.487 73.3545V36.6775" fill="#4893FF"/>
<path d="M805.245 0V36.677H841.922L805.245 0Z" fill="#D7FF1D"/>
<path d="M878.602 36.6772H841.925V73.3543L878.602 36.6772Z" fill="#4893FF"/>
<path opacity="0.5" d="M841.922 36.6772L805.245 73.3543H841.922V36.6772Z" fill="#4893FF"/>
<path d="M800.914 36.6785C800.914 26.9511 797.05 17.6222 790.172 10.7439C783.293 3.86564 773.964 0.00146484 764.237 0.00146484V36.6785" fill="#291BDB"/>
<path opacity="0.33" d="M800.914 36.675C800.914 46.4024 797.05 55.7313 790.172 62.6096C783.293 69.4879 773.964 73.3521 764.237 73.3521V36.675" fill="#291BDB"/>
<path opacity="0.196" d="M1911.89 36.677C1911.89 26.9497 1908.03 17.6207 1901.15 10.7424C1894.27 3.86417 1884.94 0 1875.21 0V36.677" fill="#4893FF"/>
<path d="M1948.57 73.3562C1938.84 73.3562 1929.51 69.492 1922.64 62.6138C1915.76 55.7355 1911.89 46.4065 1911.89 36.6792H1948.57" fill="#D7FF1D"/>
<path opacity="0.196" d="M1795.65 0V36.677H1832.33L1795.65 0Z" fill="#4893FF"/>
<path d="M1869.01 36.6792H1832.33V73.3562L1869.01 36.6792Z" fill="#291BDB"/>
<path d="M1832.33 36.6792L1795.65 73.3562H1832.33V36.6792Z" fill="#D7FF1D"/>
<path opacity="0.5" d="M1789.45 73.3564C1789.45 68.5485 1788.5 63.7877 1786.66 59.3458C1784.82 54.9039 1782.12 50.8679 1778.72 47.4682C1775.32 44.0685 1771.29 41.3718 1766.84 39.5319C1762.4 37.692 1757.64 36.7451 1752.83 36.7451V73.3564" fill="#4893FF"/>
<path d="M1752.7 36.7458C1742.99 36.7458 1733.68 40.6031 1726.82 47.469C1719.95 54.335 1716.09 63.6472 1716.09 73.3571H1752.7" fill="#FFE22E"/>
<path opacity="0.5" d="M1789.45 73.3564C1789.45 68.5485 1788.5 63.7877 1786.66 59.3458C1784.82 54.9039 1782.12 50.8679 1778.72 47.4682C1775.32 44.0685 1771.29 41.3718 1766.84 39.5319C1762.4 37.692 1757.64 36.7451 1752.83 36.7451V73.3564" fill="#4893FF"/>
<path d="M1752.7 36.7456C1742.99 36.7456 1733.68 40.6029 1726.82 47.4688C1719.95 54.3347 1716.09 63.647 1716.09 73.3569H1752.7" fill="#D7FF1D"/>
<path opacity="0.37" d="M1159.83 36.677C1159.83 26.9497 1163.69 17.6207 1170.57 10.7424C1177.45 3.86417 1186.78 0 1196.51 0V36.677" fill="#1B81DB"/>
<path d="M1123.15 73.3562C1132.88 73.3562 1142.2 69.492 1149.08 62.6138C1155.96 55.7355 1159.83 46.4065 1159.83 36.6792H1123.15" fill="#D7FF1D"/>
<path opacity="0.196" d="M1592.44 36.677C1592.44 26.9497 1596.3 17.6207 1603.18 10.7424C1610.06 3.86417 1619.39 0 1629.11 0V36.677" fill="#4893FF"/>
<path d="M1555.76 73.3562C1565.49 73.3562 1574.81 69.492 1581.69 62.6138C1588.57 55.7355 1592.43 46.4065 1592.43 36.6792H1555.76" fill="#D7FF1D"/>
<path opacity="0.196" d="M1276.08 0V36.677H1239.4L1276.08 0Z" fill="#4893FF"/>
<path opacity="0.93" d="M1202.72 36.6792H1239.4V73.3562L1202.72 36.6792Z" fill="#291BDB"/>
<path d="M1239.4 36.6792L1276.08 73.3562H1239.4V36.6792Z" fill="#D7FF1D"/>
<path opacity="0.196" d="M1708.68 0V36.677H1672L1708.68 0Z" fill="#4893FF"/>
<path d="M1635.32 36.6792H1672V73.3562L1635.32 36.6792Z" fill="#291BDB"/>
<path d="M1672 36.6792L1708.68 73.3562H1672V36.6792Z" fill="#D7FF1D"/>
<path opacity="0.5" d="M1282.27 73.3564C1282.27 68.5485 1283.22 63.7877 1285.06 59.3458C1286.9 54.9039 1289.6 50.8679 1293 47.4682C1296.4 44.0685 1300.43 41.3718 1304.87 39.5319C1309.32 37.692 1314.08 36.7451 1318.88 36.7451V73.3564" fill="#4893FF"/>
<path d="M1319.02 36.7458C1328.73 36.7458 1338.04 40.6031 1344.9 47.469C1351.77 54.335 1355.63 63.6472 1355.63 73.3571H1319.02" fill="#FFE22E"/>
<path opacity="0.5" d="M1282.27 73.3564C1282.27 68.5485 1283.22 63.7877 1285.06 59.3458C1286.9 54.9039 1289.6 50.8679 1293 47.4682C1296.4 44.0685 1300.43 41.3718 1304.87 39.5319C1309.32 37.692 1314.08 36.7451 1318.88 36.7451V73.3564" fill="#4893FF"/>
<path d="M1319.02 36.7456C1328.73 36.7456 1338.04 40.6029 1344.9 47.4688C1351.77 54.3347 1355.63 63.647 1355.63 73.3569H1319.02" fill="#D7FF1D"/>
<path d="M1361.84 36.6785C1361.84 26.9511 1365.7 17.6222 1372.58 10.7439C1379.46 3.86564 1388.79 0.00146484 1398.51 0.00146484V36.6785" fill="#291BDB"/>
<path d="M1398.52 0C1408.24 0 1417.57 3.86417 1424.45 10.7424C1431.33 17.6207 1435.19 26.9497 1435.19 36.677H1398.52" fill="#D7FF1D"/>
<path opacity="0.5" d="M1361.84 36.6775C1361.84 46.4048 1365.7 55.7338 1372.58 62.6121C1379.46 69.4903 1388.79 73.3545 1398.51 73.3545V36.6775" fill="#4893FF"/>
<path d="M1514.76 0V36.677H1478.08L1514.76 0Z" fill="#D7FF1D"/>
<path d="M1441.4 36.6772H1478.08V73.3543L1441.4 36.6772Z" fill="#4893FF"/>
<path opacity="0.5" d="M1478.08 36.6772L1514.76 73.3543H1478.08V36.6772Z" fill="#4893FF"/>
<path d="M1519.09 36.6785C1519.09 26.9511 1522.95 17.6222 1529.83 10.7439C1536.71 3.86564 1546.04 0.00146484 1555.76 0.00146484V36.6785" fill="#291BDB"/>
<path opacity="0.33" d="M1519.09 36.675C1519.09 46.4024 1522.95 55.7313 1529.83 62.6096C1536.71 69.4879 1546.04 73.3521 1555.76 73.3521V36.675" fill="#291BDB"/>
</g>
<defs>
<clipPath id="clip0_6896_5309">
<rect width="1920" height="73" fill="white"/>
</clipPath>
</defs>
</svg>
