<svg width="65" height="66" viewBox="0 0 65 66" fill="none" xmlns="http://www.w3.org/2000/svg">
<circle cx="32.606" cy="33.2227" r="32.3013" fill="#180CB2"/>
<path d="M41.7917 32.4062C42.028 32.3111 42.2833 32.2715 42.5378 32.2903C42.5378 32.2903 58.1937 31.5854 58.064 31.5661C57.0855 31.3681 53.0713 30.5087 52.0439 30.2166C51.8871 30.1861 51.7447 30.1059 51.6383 29.9883C51.5319 29.8706 51.4673 29.7219 51.4543 29.5648C51.4316 29.3264 51.3807 29.0914 51.3026 28.8647C51.195 28.6088 51.058 28.3601 50.7204 28.3818C47.7409 28.3818 44.759 28.3818 41.7794 28.3818C41.2715 28.4079 40.7622 28.373 40.2628 28.278C40.1299 28.2758 39.9973 28.2629 39.8665 28.2394C39.6533 28.2021 39.4586 28.0961 39.313 27.938C39.1673 27.7799 39.079 27.5785 39.0617 27.3655C39.0621 27.1549 39.1407 26.9519 39.2827 26.7948C39.4248 26.6377 39.6204 26.5375 39.8323 26.5133C40.1881 26.4303 40.5528 26.3905 40.9184 26.395C46.0971 26.395 58.6413 25.9918 58.6413 25.9918C58.6413 25.9918 51.9166 24.3671 50.055 23.9374C49.7897 23.8858 49.5379 23.781 49.3153 23.6294C49.0927 23.4779 48.904 23.2827 48.761 23.0562C46.0533 19.0127 41.8737 16.1517 37.0876 15.0654C36.9457 15.0316 36.048 14.8868 36.048 14.8868C35.1355 14.7697 34.216 14.714 33.2959 14.7202C31.7891 14.7202 29.607 14.923 29.5678 14.9302L29.2645 14.9833H29.2377C28.3644 15.1297 27.5051 15.3486 26.6691 15.6376C25.2559 16.1471 23.9046 16.8102 22.6401 17.6147C21.2193 18.5036 19.9371 19.5917 18.8338 20.8449C17.2409 22.637 16.0074 24.7112 15.1987 26.9575C14.5297 28.8629 14.1625 30.8587 14.1101 32.8746C14.1035 33.5931 14.1412 34.3115 14.2227 35.0256C14.4067 36.8937 14.8716 38.7244 15.6023 40.4574C16.2239 41.8701 17.0201 43.2015 17.9727 44.4214C18.7125 45.4433 19.5731 46.3745 20.5364 47.1952C22.2856 48.6592 24.2853 49.8038 26.4416 50.5751C27.7534 51.0538 29.1155 51.3858 30.5024 51.5648C32.5011 51.8229 34.5285 51.7691 36.5103 51.4055C36.9824 51.3065 37.4521 51.1907 37.9193 51.0699C40.9359 50.2699 43.6959 48.7236 45.9381 46.5772C47.6125 44.9977 48.9943 43.1415 50.0208 41.0923C50.3119 40.5226 50.1456 40.2546 49.4875 40.2667C49.1744 40.3415 46.5055 40.3463 45.4879 40.3512C45.2113 40.3579 44.9349 40.3287 44.666 40.2642C44.5019 40.2494 44.3428 40.2009 44.1988 40.1218C44.0633 40.0736 43.9419 39.9931 43.8455 39.8875C43.749 39.7819 43.6805 39.6544 43.6459 39.5164C43.6113 39.3784 43.6117 39.2341 43.6471 39.0963C43.6825 38.9585 43.7519 38.8315 43.849 38.7264C43.9368 38.6302 44.0434 38.5524 44.1623 38.4977C44.2812 38.4429 44.4101 38.4124 44.5412 38.4078C44.8201 38.3329 57.9661 37.7873 57.7509 37.7608C57.1344 37.6835 52.1735 36.4982 51.8799 36.4064C51.4763 36.2809 51.3907 36.1119 51.4519 35.7015C51.5057 35.3684 51.5375 35.0328 51.5839 34.6996C51.6304 34.3665 51.5179 34.2627 51.1852 34.2796C50.6544 34.3061 42.8338 34.1516 42.4571 34.1468C42.1915 34.1482 41.9298 34.0835 41.6963 33.9585C41.5427 33.8937 41.4116 33.7861 41.3191 33.6489C41.2265 33.5117 41.1765 33.3508 41.1752 33.186C41.1866 33.0102 41.2496 32.8416 41.3565 32.7006C41.4633 32.5596 41.6094 32.4522 41.777 32.3917" fill="#D7FF1D"/>
</svg>
