<svg width="108" height="108" viewBox="0 0 108 108" fill="none" xmlns="http://www.w3.org/2000/svg">
<circle cx="54" cy="54" r="54" fill="white"/>
<circle cx="54.5" cy="54" r="42.5" fill="#180CB2"/>
<path d="M66.5788 52.926C66.8897 52.8009 67.2257 52.7487 67.5605 52.7735C67.5605 52.7735 88.1595 51.846 87.9889 51.8206C86.7015 51.5601 81.4198 50.4294 80.068 50.045C79.8617 50.0049 79.6743 49.8994 79.5343 49.7446C79.3943 49.5898 79.3094 49.3942 79.2923 49.1874C79.2624 48.8737 79.1954 48.5646 79.0927 48.2662C78.9511 47.9296 78.7708 47.6024 78.3267 47.631C74.4064 47.631 70.483 47.631 66.5627 47.631C65.8944 47.6652 65.2243 47.6194 64.5672 47.4944C64.3923 47.4915 64.2179 47.4745 64.0458 47.4436C63.7653 47.3946 63.5091 47.2551 63.3175 47.047C63.1259 46.8389 63.0096 46.574 62.9869 46.2937C62.9874 46.0167 63.0908 45.7495 63.2777 45.5428C63.4646 45.3362 63.7219 45.2044 64.0007 45.1725C64.4689 45.0632 64.9488 45.011 65.4298 45.0168C72.2436 45.0168 88.7485 44.4864 88.7485 44.4864C88.7485 44.4864 79.9005 42.3487 77.4512 41.7833C77.1021 41.7154 76.7708 41.5775 76.4779 41.3781C76.185 41.1786 75.9368 40.9219 75.7486 40.6239C72.186 35.3037 66.6868 31.5394 60.3895 30.1101C60.2028 30.0656 59.0216 29.8751 59.0216 29.8751C57.8211 29.721 56.6113 29.6477 55.4007 29.6559C53.418 29.6559 50.547 29.9227 50.4955 29.9322L50.0964 30.0021H50.061C48.912 30.1947 47.7814 30.4827 46.6815 30.8629C44.8221 31.5333 43.0442 32.4058 41.3804 33.4644C39.5111 34.6338 37.824 36.0655 36.3723 37.7143C34.2766 40.0723 32.6536 42.8015 31.5895 45.7569C30.7093 48.2639 30.2262 50.8899 30.1572 53.5422C30.1486 54.4877 30.1981 55.4328 30.3053 56.3723C30.5474 58.8304 31.1592 61.2391 32.1206 63.5192C32.9385 65.3779 33.986 67.1297 35.2394 68.7348C36.2127 70.0793 37.3451 71.3045 38.6125 72.3844C40.914 74.3107 43.5451 75.8165 46.3822 76.8314C48.1082 77.4612 49.9004 77.8981 51.7251 78.1337C54.3549 78.4732 57.0224 78.4025 59.6299 77.924C60.2511 77.7938 60.869 77.6413 61.4838 77.4825C65.4529 76.4298 69.0843 74.3953 72.0344 71.5713C74.2375 69.4931 76.0555 67.0507 77.4062 64.3546C77.7892 63.6049 77.5703 63.2524 76.7045 63.2682C76.2925 63.3667 72.781 63.3731 71.4421 63.3794C71.0781 63.3883 70.7145 63.3498 70.3606 63.2651C70.1447 63.2456 69.9354 63.1818 69.7459 63.0777C69.5677 63.0142 69.4079 62.9083 69.2811 62.7693C69.1542 62.6304 69.064 62.4627 69.0185 62.2811C68.973 62.0995 68.9735 61.9097 69.0201 61.7284C69.0667 61.5471 69.1579 61.3799 69.2857 61.2417C69.4012 61.1151 69.5414 61.0128 69.6979 60.9407C69.8544 60.8687 70.0239 60.8285 70.1965 60.8224C70.5634 60.724 87.8601 60.0061 87.5769 59.9712C86.7658 59.8695 80.2385 58.3099 79.8523 58.1892C79.3212 58.0241 79.2086 57.8017 79.2891 57.2617C79.3599 56.8234 79.4017 56.3819 79.4628 55.9435C79.524 55.5052 79.3759 55.3686 78.9382 55.3908C78.2398 55.4258 67.95 55.2225 67.4543 55.2161C67.1048 55.218 66.7605 55.1328 66.4533 54.9684C66.2512 54.8831 66.0787 54.7416 65.957 54.561C65.8352 54.3805 65.7694 54.1688 65.7677 53.952C65.7827 53.7207 65.8656 53.4988 66.0062 53.3133C66.1468 53.1277 66.339 52.9866 66.5595 52.9069" fill="#D7FF1D"/>
</svg>
