<svg width="31" height="34" viewBox="0 0 31 34" fill="none" xmlns="http://www.w3.org/2000/svg">
<path d="M28.5496 4.67477C24.9269 3.7712 21.4152 2.46952 18.0788 0.793504L17.0956 0.310501C16.6765 0.106185 16.2163 0 15.7501 0C15.2838 0 14.8237 0.106185 14.4046 0.310501L13.4213 0.793504C10.0849 2.46952 6.57325 3.7712 2.95051 4.67477C2.29532 4.83675 1.7133 5.21362 1.29743 5.74519C0.881552 6.27676 0.655808 6.93236 0.656251 7.60728V12.8686C0.667979 17.2673 2.01513 21.5588 4.51942 25.175C7.02371 28.7913 10.5671 31.5619 14.6806 33.1201C15.3711 33.3735 16.1291 33.3735 16.8196 33.1201C20.9331 31.5619 24.4764 28.7913 26.9807 25.175C29.485 21.5588 30.8321 17.2673 30.8439 12.8686V7.69353C30.8608 7.00468 30.6429 6.33057 30.2259 5.78197C29.809 5.23337 29.2178 4.84291 28.5496 4.67477ZM28.2564 12.8686C28.2434 16.742 27.0559 20.5204 24.8508 23.7049C22.6457 26.8894 19.5266 29.3303 15.9053 30.7051C15.8046 30.7393 15.6955 30.7393 15.5948 30.7051C11.9736 29.3303 8.85447 26.8894 6.64934 23.7049C4.44421 20.5204 3.25675 16.742 3.24376 12.8686V7.69353C3.24758 7.59873 3.28136 7.50758 3.34025 7.43319C3.39915 7.3588 3.48011 7.305 3.57151 7.27953C7.37607 6.32326 11.066 4.95832 14.5771 3.20851L15.5603 2.70826H15.7501H15.9398L16.9231 3.20851C20.4341 4.95832 24.1241 6.32326 27.9286 7.27953C28.02 7.305 28.101 7.3588 28.1599 7.43319C28.2188 7.50758 28.2526 7.59873 28.2564 7.69353V12.8686ZM22.3223 10.4363C22.5849 10.6577 22.75 10.9734 22.7823 11.3153C22.8145 11.6572 22.7113 11.9982 22.4948 12.2648L15.3016 20.8898C15.187 21.0278 15.0451 21.1404 14.8847 21.2206C14.7244 21.3008 14.5491 21.3467 14.3701 21.3556C14.027 21.3553 13.6982 21.2188 13.4558 20.9761L9.09154 16.6118C8.96948 16.4929 8.87247 16.3507 8.80624 16.1937C8.74 16.0367 8.70588 15.868 8.70588 15.6976C8.70588 15.5272 8.74 15.3585 8.80624 15.2014C8.87247 15.0444 8.96948 14.9022 9.09154 14.7833C9.21832 14.6699 9.36622 14.5826 9.52678 14.5264C9.68735 14.4702 9.85742 14.4462 10.0273 14.4558C10.1971 14.4655 10.3634 14.5085 10.5166 14.5824C10.6698 14.6564 10.8069 14.7598 10.92 14.8868L14.2321 18.1988L20.5111 10.6605C20.722 10.3914 21.031 10.2166 21.3704 10.1746C21.7099 10.1326 22.0521 10.2267 22.3223 10.4363Z" fill="white"/>
</svg>
