<svg width="64" height="64" viewBox="0 0 64 64" fill="none" xmlns="http://www.w3.org/2000/svg">
<circle cx="32" cy="32" r="32" fill="#3A30C1"/>
<path d="M26.1616 47.999C25.9929 48.0064 25.825 47.9727 25.6718 47.9007C25.5186 47.8286 25.3847 47.7204 25.2813 47.585C25.1779 47.4496 25.108 47.2911 25.0774 47.1226C25.0468 46.9542 25.0565 46.7808 25.1056 46.6169L28.9599 34.0709H24.0496C23.8664 34.0709 23.6863 34.0224 23.527 33.9304C23.3678 33.8383 23.2349 33.7058 23.1415 33.5459C23.0488 33.383 23 33.1983 23 33.0102C23 32.8221 23.0488 32.6374 23.1415 32.4745L30.5333 18.5464C30.6241 18.3825 30.7559 18.2457 30.9153 18.1498C31.0747 18.0539 31.2562 18.0022 31.4415 18H38.8333C39.0166 18 39.1967 18.0485 39.3559 18.1405C39.5151 18.2325 39.648 18.365 39.7415 18.525C39.8342 18.6879 39.8829 18.8726 39.8829 19.0607C39.8829 19.2487 39.8342 19.4335 39.7415 19.5964L35.3486 27.6425H40.9453C41.1443 27.6431 41.3391 27.7007 41.5073 27.8088C41.6754 27.9168 41.8101 28.0709 41.8957 28.2532C41.9831 28.4377 42.0166 28.6436 41.9923 28.8468C41.968 29.05 41.8868 29.2418 41.7584 29.3996L26.9747 47.6133C26.8754 47.7342 26.7511 47.8315 26.6105 47.8982C26.47 47.9648 26.3167 47.9993 26.1616 47.999ZM25.8131 31.9281H30.3855C30.5503 31.9293 30.7126 31.9697 30.8593 32.046C31.006 32.1223 31.133 32.2323 31.2303 32.3674C31.3286 32.5004 31.3951 32.6549 31.4244 32.8186C31.4538 32.9822 31.4451 33.1505 31.3992 33.3102L28.7382 42.0635L38.7066 29.7853H33.5534C33.3702 29.7853 33.1901 29.7369 33.0309 29.6448C32.8716 29.5528 32.7387 29.4203 32.6453 29.2603C32.5526 29.0975 32.5038 28.9127 32.5038 28.7246C32.5038 28.5366 32.5526 28.3518 32.6453 28.1889L37.0382 20.1428H32.0751L25.8131 31.9281Z" fill="white"/>
</svg>
