<svg width="64" height="64" viewBox="0 0 64 64" fill="none" xmlns="http://www.w3.org/2000/svg">
<circle cx="32" cy="32" r="32" fill="#3A30C1"/>
<path fill-rule="evenodd" clip-rule="evenodd" d="M23.8594 27.784C23.8594 27.2019 24.3313 26.73 24.9134 26.73H33.3459C33.928 26.73 34.4 27.2019 34.4 27.784C34.4 28.3662 33.928 28.8381 33.3459 28.8381H24.9134C24.3313 28.8381 23.8594 28.3662 23.8594 27.784Z" fill="white"/>
<path fill-rule="evenodd" clip-rule="evenodd" d="M41.6644 30.1735C41.1598 30.1735 40.716 30.3692 40.3958 30.698L40.3769 30.717C40.003 31.082 39.7942 31.6016 39.8468 32.1536L39.8479 32.166C39.9222 33.0584 40.7802 33.8276 41.833 33.8276H44.5635C44.7907 33.8129 44.939 33.6352 44.939 33.4482V30.553C44.939 30.3658 44.7907 30.1882 44.5635 30.1735H41.6644ZM38.8947 29.2177C39.6139 28.4844 40.5996 28.0654 41.6644 28.0654H44.5876C44.6003 28.0654 44.6128 28.0656 44.6253 28.0661C45.9647 28.1139 47.0471 29.1978 47.0471 30.553V33.4482C47.0471 34.8034 45.9647 35.8872 44.6253 35.935C44.6128 35.9355 44.6003 35.9357 44.5876 35.9357H41.833C39.8521 35.9357 37.9294 34.4872 37.7475 32.3473C37.6341 31.1355 38.0953 30.0035 38.8947 29.2177Z" fill="white"/>
<path fill-rule="evenodd" clip-rule="evenodd" d="M24.9171 21.1081C24.5738 21.1081 24.248 21.1326 23.939 21.1802L23.9099 21.1842C22.3537 21.3795 21.1303 22.0458 20.2926 23.0286C19.4528 24.014 18.9441 25.3846 18.9441 27.0811V36.919C18.9441 38.7876 19.5623 40.2629 20.5678 41.2683C21.5732 42.2737 23.0485 42.892 24.9171 42.892H37.5658C39.4344 42.892 40.9096 42.2737 41.9151 41.2683C42.9205 40.2629 43.5387 38.7876 43.5387 36.919V35.9352H41.8382C39.8571 35.9352 37.9344 34.4866 37.7527 32.3468C37.6391 31.135 38.1005 30.003 38.8999 29.2173C39.6189 28.4839 40.6047 28.0649 41.6695 28.0649H43.5387V27.0811C43.5387 25.3731 43.0211 23.9939 42.168 23.0054C41.3169 22.0191 40.0746 21.3546 38.4981 21.1713C38.4808 21.1693 38.4637 21.1669 38.4465 21.164C38.1937 21.1219 37.9095 21.1081 37.5658 21.1081H24.9171ZM23.633 19.0943C24.0501 19.031 24.4784 19 24.9171 19H37.5658C37.9448 19 38.3539 19.0137 38.7667 19.0803C40.8052 19.3229 42.5402 20.2099 43.764 21.6281C44.991 23.0499 45.6469 24.9383 45.6469 27.0811V29.119C45.6469 29.7011 45.1749 30.173 44.5928 30.173H41.6695C41.1649 30.173 40.721 30.3687 40.4009 30.6975L40.3821 30.7165C40.0081 31.0815 39.7992 31.6012 39.8518 32.1531L39.8531 32.1655C39.9274 33.0579 40.7854 33.8271 41.8382 33.8271H44.5928C45.1749 33.8271 45.6469 34.299 45.6469 34.8811V36.919C45.6469 39.2666 44.8597 41.3049 43.4057 42.7589C41.9516 44.2129 39.9133 45.0001 37.5658 45.0001H24.9171C22.5694 45.0001 20.5311 44.2129 19.0771 42.7589C17.6231 41.3049 16.8359 39.2666 16.8359 36.919V27.0811C16.8359 24.9549 17.4797 23.0791 18.6882 21.6611C19.896 20.2441 21.6117 19.3512 23.633 19.0943Z" fill="white"/>
</svg>
