<svg width="64" height="64" viewBox="0 0 64 64" fill="none" xmlns="http://www.w3.org/2000/svg">
<circle cx="32" cy="32" r="32" fill="#3A30C1"/>
<path d="M33.6672 35.3512C34.5487 34.2605 34.4828 32.6531 33.4694 31.6394C32.3854 30.5554 30.6218 30.5552 29.5377 31.6389L28.6085 32.5682C28.2674 32.9095 27.712 32.9093 27.3705 32.568C27.2049 32.4024 27.114 32.1826 27.1138 31.9487C27.1138 31.7151 27.2049 31.4952 27.37 31.3299L28.9423 29.7576C29.3144 29.3858 29.3144 28.7828 28.9423 28.4109C28.5704 28.0388 27.9674 28.0388 27.5956 28.4109L27.1614 28.8451L26.7469 28.4307C26.3751 28.0588 25.7721 28.0588 25.4 28.4307C25.0281 28.8028 25.0281 29.4055 25.4 29.7776L25.8257 30.2031C25.4263 30.6961 25.2092 31.3059 25.2092 31.9492C25.2092 32.6917 25.4986 33.3898 26.0238 33.9149C26.5656 34.457 27.2778 34.728 27.9897 34.728C28.7016 34.728 29.4135 34.457 29.9552 33.9154L30.8844 32.9861C31.2257 32.6448 31.7812 32.6451 32.1227 32.9864C32.464 33.3279 32.4643 33.8834 32.123 34.2244L30.2995 36.0479C29.9274 36.4197 29.9274 37.0227 30.2995 37.3946C30.4853 37.5806 30.7289 37.6738 30.9728 37.6735C31.2165 37.6735 31.4604 37.5806 31.6462 37.3946L32.3318 36.7092L32.7462 37.1234C32.9323 37.3094 33.1759 37.4023 33.4196 37.4023C33.6635 37.4023 33.9071 37.3094 34.0932 37.1234C34.465 36.7515 34.465 36.1485 34.0932 35.7767L33.6672 35.3512Z" fill="white"/>
<path d="M35.9814 22.543C35.4418 23.0826 35.1445 23.8001 35.1445 24.5631C35.1445 25.3263 35.4418 26.0437 35.9814 26.5834C36.5383 27.1403 37.27 27.4187 38.0017 27.4187C38.7334 27.4187 39.4648 27.1403 40.0217 26.5834C41.1358 25.4693 41.1358 23.6568 40.0217 22.5428C38.9079 21.4289 37.0952 21.4292 35.9814 22.543ZM38.675 25.2367C38.3037 25.608 37.6995 25.6078 37.3281 25.2367C36.957 24.8653 36.957 24.2611 37.3281 23.8897C37.6995 23.5186 38.3037 23.5186 38.675 23.8897C39.0464 24.2611 39.0464 24.8653 38.675 25.2367Z" fill="white"/>
<path d="M45.6073 17.8115C45.5923 17.3079 45.1879 16.9032 44.6846 16.888L31.7009 16.4926C31.4359 16.4851 31.181 16.5865 30.9952 16.7743L14.9691 32.9655C13.0051 34.9497 13.0051 38.1782 14.9691 40.1622L22.5472 47.8182C23.5015 48.7825 24.7713 49.3137 26.1225 49.3137C27.4735 49.3137 28.7433 48.7825 29.6979 47.8182L45.7238 31.627C45.9073 31.4417 46.0067 31.1893 45.9987 30.9286L45.6073 17.8115ZM28.3441 46.4783C27.7502 47.0785 26.9611 47.4091 26.1225 47.4091C25.2837 47.4091 24.4946 47.0785 23.9006 46.4783L16.3228 38.8223C15.09 37.577 15.09 35.5507 16.3228 34.3054L32.0572 18.409L43.7303 18.7645L44.0828 30.5776L28.3441 46.4783Z" fill="white"/>
</svg>
