<svg width="64" height="64" viewBox="0 0 64 64" fill="none" xmlns="http://www.w3.org/2000/svg">
<circle cx="32" cy="32" r="32" fill="#3A30C1"/>
<path fill-rule="evenodd" clip-rule="evenodd" d="M31.9573 35.3301L29.6671 33.0398C28.9473 32.3201 27.7803 32.3201 27.0606 33.0398L24.7703 35.3301C24.0505 36.0499 24.0505 37.2168 24.7703 37.9366L27.0606 40.2269C27.7803 40.9466 28.9473 40.9466 29.6671 40.2269L31.9573 37.9366C32.6771 37.2168 32.6771 36.0499 31.9573 35.3301ZM26.3898 36.6333L28.3638 34.6593L30.3378 36.6333L28.3638 38.6074L26.3898 36.6333Z" fill="white"/>
<path fill-rule="evenodd" clip-rule="evenodd" d="M17 36.6333C17 31.3083 20.6618 26.8385 25.6046 25.6046C26.8386 20.6617 31.3084 17 36.6334 17C42.911 17 48 22.089 48 28.3667C48 33.6917 44.3383 38.1615 39.3954 39.3954C38.1615 44.3383 33.6917 48 28.3667 48C22.089 48 17 42.911 17 36.6333ZM28.3667 25.2667C28.1964 25.2667 28.0271 25.2704 27.8586 25.2778C29.1322 21.6599 32.5799 19.0667 36.6334 19.0667C41.7696 19.0667 45.9334 23.2304 45.9334 28.3667C45.9334 32.4201 43.3401 35.8679 39.7222 37.1414C39.7296 36.973 39.7333 36.8036 39.7333 36.6333C39.7333 30.3557 34.6443 25.2667 28.3667 25.2667ZM28.3667 27.3333C23.2304 27.3333 19.0667 31.4971 19.0667 36.6333C19.0667 41.7696 23.2304 45.9333 28.3667 45.9333C33.5029 45.9333 37.6667 41.7696 37.6667 36.6333C37.6667 31.4971 33.5029 27.3333 28.3667 27.3333Z" fill="white"/>
</svg>
