<svg width="64" height="64" viewBox="0 0 64 64" fill="none" xmlns="http://www.w3.org/2000/svg">
<circle cx="32" cy="32" r="32" fill="#3A30C1"/>
<path d="M35.2687 20C28.3206 20 22.668 25.6527 22.668 32.6007C22.668 39.5488 28.3206 45.2014 35.2687 45.2014C42.2167 45.2014 47.8694 39.5488 47.8694 32.6007C47.8694 25.6527 42.2167 20 35.2687 20ZM35.2687 42.9822C29.5443 42.9822 24.8872 38.3251 24.8872 32.6007C24.8872 26.8764 29.5443 22.2193 35.2687 22.2193C40.993 22.2193 45.6502 26.8764 45.6502 32.6007C45.6502 38.3251 40.993 42.9822 35.2687 42.9822Z" fill="white"/>
<path d="M12.6289 25.1587H19.5618V27.3779H12.6289V25.1587Z" fill="white"/>
<path d="M12.6289 37.8237H19.5618V40.043H12.6289V37.8237Z" fill="white"/>
<path d="M10 31.4912H19.565V33.7105H10V31.4912Z" fill="white"/>
<path d="M35.272 28.9948C35.9602 28.9948 36.52 29.5547 36.52 30.2428H38.7393C38.7393 28.719 37.7507 27.4226 36.3816 26.9587V25.1553H34.1624V26.9587C32.7932 27.4226 31.8047 28.719 31.8047 30.2428C31.8047 32.1547 33.3601 33.7101 35.272 33.7101C35.9602 33.7101 36.52 34.27 36.52 34.9582C36.52 35.6464 35.9602 36.2062 35.272 36.2062C34.5838 36.2062 34.0239 35.6464 34.0239 34.9582H31.8047C31.8047 36.482 32.7932 37.7784 34.1624 38.2423V40.0458H36.3816V38.2423C37.7507 37.7784 38.7393 36.482 38.7393 34.9582C38.7393 33.0463 37.1839 31.4909 35.272 31.4909C34.5838 31.4909 34.0239 30.931 34.0239 30.2428C34.0239 29.5547 34.5838 28.9948 35.272 28.9948Z" fill="white"/>
</svg>
